Coordinates
version=1
nRows=26
nColumns=22
inDegrees=yes

Units are S.I. units (second, meters, Newtons, ...)
If the header above contains a line with 'inDegrees', this indicates whether rotational values are in degrees (yes) or radians (no).

endheader
time	pelvis_tilt	pelvis_list	pelvis_rotation	pelvis_tx	pelvis_ty	pelvis_tz	hip_flexion_r	hip_adduction_r	hip_rotation_r	knee_angle_r	ankle_angle_r	subtalar_angle_r	hip_flexion_l	hip_adduction_l	hip_rotation_l	knee_angle_l	ankle_angle_l	subtalar_angle_l	lumbar_extension	lumbar_bending	lumbar_rotation
      1.83000000	     12.17978527	      3.79295805	     67.08235596	      1.10897142	      0.93820902	      0.60520984	     -4.11991750	      8.29784293	     -8.87787318	    -15.37822940	      9.58870099	      4.65388564	     14.87758296	     -6.83406281	      4.96005189	    -64.47512345	     14.78445264	    -26.14962133	    -14.63493972	      8.13820051	     -1.56218202
      1.84000000	     12.01324538	      4.00599450	     67.49361697	      1.11296670	      0.93877750	      0.59823514	     -5.20731924	      8.22438216	     -9.31695321	    -14.61388714	      9.85502200	      4.83263745	     15.76226274	     -6.61745338	      4.00300084	    -62.95499424	     15.35012262	    -27.02497278	    -14.80665506	      7.95046848	     -1.17718454
      1.85000000	     11.87556917	      4.18266657	     67.90832049	      1.11689765	      0.93908037	      0.59123010	     -6.27282579	      8.20398412	     -9.76538275	    -13.84541958	     10.11052922	      5.04134867	     16.59861525	     -6.46753553	      2.96252606	    -61.25218017	     15.80257209	    -27.57706941	    -14.95629517	      7.81222003	     -0.84051336
      1.86000000	     11.77824400	      4.32457391	     68.32808962	      1.12079388	      0.93911058	      0.58418523	     -7.31571423	      8.24851517	    -10.22148059	    -13.09012889	     10.37156036	      5.23562492	     17.38873060	     -6.40756252	      1.82034698	    -59.39033111	     16.24476709	    -27.59983358	    -15.08800300	      7.72865481	     -0.52653544
      1.87000000	     11.72921863	      4.48587041	     68.73504794	      1.12467442	      0.93896930	      0.57707276	     -8.40534525	      8.34502793	    -10.65540027	    -12.33047488	     10.63003288	      5.42144432	     18.05931817	     -6.43062432	      0.54308337	    -57.36406178	     16.71747354	    -27.05451739	    -15.26479518	      7.67902868	     -0.18881435
      1.88000000	     11.70312487	      4.61339822	     69.14902799	      1.12854229	      0.93856356	      0.56987763	     -9.47207478	      8.49548899	    -11.03980664	    -11.57335787	     10.80718567	      5.59640861	     18.68376316	     -6.53238390	     -0.86753657	    -55.19497992	     17.14602658	    -25.61814912	    -15.40794126	      7.66465380	      0.10204998
      1.89000000	     11.71701002	      4.75985229	     69.54170531	      1.13238592	      0.93798090	      0.56257427	    -10.56328393	      8.68231096	    -11.39710000	    -10.85127932	     11.01946066	      5.63477125	     19.17925694	     -6.70450665	     -2.44938533	    -52.88493094	     17.54630489	    -24.04041765	    -15.58594716	      7.67872933	      0.42521287
      1.90000000	     11.75794833	      4.93388657	     69.89796213	      1.13620448	      0.93725743	      0.55516252	    -11.68087643	      8.88737826	    -11.66897885	    -10.16763310	     11.28480630	      5.60979443	     19.52689517	     -6.92602859	     -4.22661296	    -50.43766938	     17.78912177	    -22.59867987	    -15.80427734	      7.70826909	      0.75156863
      1.91000000	     11.80009670	      5.03194969	     70.28284757	      1.13990072	      0.93620716	      0.54760097	    -12.68522565	      9.12154607	    -11.99269678	     -9.55869448	     11.48348139	      5.52601492	     19.86667515	     -7.15888079	     -6.07915035	    -47.89128357	     17.86603621	    -20.96548378	    -15.92360092	      7.78186441	      1.07087826
      1.92000000	     11.84239240	      5.15929221	     70.63661870	      1.14351459	      0.93505431	      0.53989744	    -13.69254883	      9.33586095	    -12.25519219	     -9.01665844	     11.74203646	      5.42960909	     20.04908067	     -7.38313010	     -8.12788451	    -45.21957787	     17.75659859	    -19.73324610	    -16.06879514	      7.84664688	      1.39497843
      1.93000000	     11.87844224	      5.28565235	     70.99145972	      1.14699495	      0.93375252	      0.53202591	    -14.65938861	      9.53550234	    -12.52394074	     -8.55823482	     12.02870002	      5.34270063	     20.12150468	     -7.57728015	    -10.33280490	    -42.45042020	     17.50453092	    -18.72849616	    -16.19537757	      7.91691820	      1.71013057
      1.94000000	     11.89457776	      5.38622909	     71.35477280	      1.15033508	      0.93226820	      0.52400946	    -15.54466019	      9.71610929	    -12.78538187	     -8.20175659	     12.41960319	      5.28576909	     20.12784603	     -7.72291741	    -12.69194942	    -39.61507345	     17.13408327	    -17.88183065	    -16.27333853	      7.98419458	      1.98126056
      1.95000000	     11.89421308	      5.45853898	     71.74332579	      1.15348505	      0.93061547	      0.51581132	    -16.34169624	      9.87737121	    -13.14057132	     -7.95450584	     12.73842158	      5.24230015	     20.08707400	     -7.80170642	    -15.17197293	    -36.75649225	     16.67016313	    -16.94186836	    -16.29432216	      8.06079955	      2.24964125
      1.96000000	     11.86519060	      5.50421691	     72.15008248	      1.15643811	      0.92879546	      0.50748330	    -17.03971914	     10.00618827	    -13.51702364	     -7.83293707	     13.15717903	      5.24574111	     20.02323430	     -7.78569342	    -17.75218167	    -33.92297626	     16.16357538	    -16.12866587	    -16.26705823	      8.12793283	      2.45977652
      1.97000000	     11.80819531	      5.51952980	     72.57540680	      1.15914573	      0.92680994	      0.49904751	    -17.62749633	     10.09787014	    -13.94576520	     -7.84771817	     13.62404436	      5.28482481	     19.96811427	     -7.65816192	    -20.36029545	    -31.17264282	     15.66392098	    -15.35040873	    -16.19546061	      8.19498079	      2.61806854
      1.98000000	     11.72857248	      5.49075503	     73.02372594	      1.16164331	      0.92464850	      0.49054709	    -18.09635663	     10.16756969	    -14.41384946	     -7.98655458	     14.11827203	      5.36339430	     19.96837739	     -7.42721768	    -22.89308240	    -28.57810104	     15.18864366	    -14.48265409	    -16.06986818	      8.25455589	      2.74431625
      1.99000000	     11.62124153	      5.40637658	     73.48701758	      1.16390192	      0.92230495	      0.48201881	    -18.41991274	     10.20176220	    -14.91584364	     -8.27358609	     14.67787588	      5.47843798	     20.05958855	     -7.08863866	    -25.23015785	    -26.19369870	     14.80573394	    -13.65928934	    -15.88643513	      8.31440259	      2.83026470
      2.00000000	     11.50812673	      5.28076478	     73.95408504	      1.16596378	      0.91984774	      0.47350454	    -18.61037124	     10.21211412	    -15.40429388	     -8.73006819	     15.17662636	      5.65246295	     20.22574123	     -6.68000515	    -27.26593062	    -24.05845544	     14.53234734	    -12.71190255	    -15.67785796	      8.38536740	      2.85772850
      2.01000000	     11.37849674	      5.12782580	     74.43543082	      1.16790920	      0.91731224	      0.46493701	    -18.71278805	     10.19540581	    -15.89602536	     -9.29840701	     15.69284211	      5.87614982	     20.45423108	     -6.20822376	    -28.89357153	    -22.21609306	     14.40596619	    -11.85582303	    -15.43515873	      8.43405919	      2.85567458
      2.02000000	     11.24052442	      4.98088079	     74.91315523	      1.16979092	      0.91479962	      0.45628985	    -18.77599121	     10.14594805	    -16.35660304	     -9.96453559	     16.14672038	      6.17428830	     20.68867085	     -5.70756271	    -30.08598398	    -20.68830837	     14.41019913	    -11.02804654	    -15.20145809	      8.45500696	      2.83620650
      2.03000000	     11.08801205	      4.86266098	     75.38410533	      1.17168936	      0.91237907	      0.44750886	    -18.82656675	     10.05359274	    -16.78168550	    -10.73143516	     16.59171363	      6.42820124	     20.89696818	     -5.20423273	    -30.85249431	    -19.51975188	     14.53936971	    -10.52481339	    -14.98492078	      8.42151245	      2.78400116
      2.04000000	     10.91867480	      4.83228773	     75.85241602	      1.17364661	      0.91020661	      0.43843922	    -18.99928979	      9.92413450	    -17.10428442	    -11.46863655	     16.82798378	      6.93749031	     20.97505477	     -4.69763844	    -31.21421492	    -18.68467490	     14.72499736	     -9.86582654	    -14.82703723	      8.30790656	      2.72169207
      2.05000000	     10.73180275	      4.87009670	     76.29306258	      1.17569411	      0.90826879	      0.42912705	    -19.21597231	      9.73774049	    -17.38156920	    -12.29214389	     16.99464969	      7.38143259	     20.96862104	     -4.24131627	    -31.30028597	    -18.26759867	     14.97740779	     -9.63131079	    -14.72015806	      8.11992344	      2.66026879
      2.06000000	     10.51473822	      4.99083106	     76.71230184	      1.17782477	      0.90662419	      0.41947502	    -19.52460462	      9.49085027	    -17.58545855	    -13.13603296	     17.01050768	      7.93478460	     20.84721752	     -3.82041505	    -31.17246517	    -18.23814255	     15.24534621	     -9.67630390	    -14.66355192	      7.84227885	      2.59804459
      2.07000000	     10.25780127	      5.17685205	     77.12470758	      1.18001008	      0.90525148	      0.40945649	    -19.89766488	      9.18285133	    -17.74016301	    -14.01279414	     16.89061749	      8.50729476	     20.64018066	     -3.42778259	    -30.90682934	    -18.57849164	     15.48821516	    -10.04197122	    -14.63015267	      7.47975671	      2.48606114
      2.08000000	      9.97696301	      5.39670034	     77.49478057	      1.18224049	      0.90416105	      0.39911294	    -20.28669404	      8.82149335	    -17.77073927	    -14.95086798	     16.53531229	      9.28237690	     20.35999893	     -3.06515229	    -30.50989506	    -19.18568465	     15.70076211	    -10.85979077	    -14.60138899	      7.05881719	      2.43936552
